<?xml version="1.0" encoding="UTF-8"?><svg id="a" xmlns="http://www.w3.org/2000/svg" xmlns:xlink="http://www.w3.org/1999/xlink" viewBox="0 0 556.28 353.2"><defs><clipPath id="d"><rect x="185.43" y="0" width="185.43" height="182.78" style="fill:none;"/></clipPath><clipPath id="e"><rect x="185.43" y="0" width="185.43" height="182.78" style="fill:none;"/></clipPath></defs><g id="b"><path d="M58.3,225.16v19.19h-17.7v-11.14l-3.71-3.71h-14.61l-4.46,4.58v41.71l4.7,4.83h14.11c1.24-1.36,2.6-2.6,3.96-3.96v-12.75h17.7v20.42l-13.99,13.99h-28.22c-5.32-5.32-10.77-10.65-16.09-16.09v-55.08l15.47-15.47h29.46l13.37,13.49Z" style="fill:#ecaa1e;"/><path d="M126.75,298.32h-18.2l-4.7-19.93h-20.18l-4.46,19.93h-15.84l21.41-86.65h21.66l20.3,86.65ZM85.91,268.11h15.72l-8.05-33.67-7.67,33.67Z" style="fill:#ecaa1e;"/><path d="M193.6,251.4l-14.48,14.48h-25.87v32.43h-17.82v-86.65h43.69l14.48,14.48v25.25ZM153.25,229.5v20.42h18.44l4.08-4.08v-12.25l-4.08-4.08h-18.44Z" style="fill:#ecaa1e;"/><path d="M222.32,298.32h-17.82v-86.65h17.82v86.65Z" style="fill:#ecaa1e;"/><path d="M291.88,228.38h-21.29v69.94h-17.82v-69.94h-21.41v-16.71h60.53v16.71Z" style="fill:#ecaa1e;"/><path d="M354.76,283.34l-15.22,14.98h-29.09l-15.1-14.98v-57.19l14.48-14.48h30.45l14.48,14.48v57.19ZM332.73,229.5h-15.47l-4.08,4.08v42.58l4.33,4.46h15.1l4.33-4.46v-42.58l-4.21-4.08Z" style="fill:#ecaa1e;"/><path d="M424.2,284.95l-13.37,13.37h-30.95l-13.37-13.37v-73.28h17.7v64.49l4.46,4.46h13.86l4.46-4.46v-64.49h17.21v73.28Z" style="fill:#ecaa1e;"/><path d="M454.9,280.62h36.51v17.7h-54.34v-86.65h17.82v68.95Z" style="fill:#ecaa1e;"/><path d="M555.54,239.27h-17.82v-6.07l-3.71-3.71h-14.73l-3.71,3.71v11.64l2.97,2.85h26.49l11.26,10.77v25.87l-14.11,13.99h-30.33l-14.11-13.99v-15.72h17.82v8.05l3.96,3.96h14.98l3.96-3.96v-13l-2.85-2.85h-26.37l-11.51-11.39v-24.26l13.37-13.49h30.95l13.49,13.49v14.11Z" style="fill:#ecaa1e;"/><path d="M80.66,331.65h-7.23v-2.61h17.6v2.61h-7.27v21.17h-3.1v-21.17Z" style="fill:#1d1d1b;"/><path d="M114,340.68c0,8.18-4.97,12.52-11.04,12.52s-10.69-4.87-10.69-12.06c0-7.55,4.69-12.49,11.04-12.49s10.69,4.97,10.69,12.03ZM95.55,341.07c0,5.08,2.75,9.63,7.58,9.63s7.62-4.48,7.62-9.88c0-4.73-2.47-9.67-7.58-9.67s-7.62,4.69-7.62,9.91Z" style="fill:#1d1d1b;"/><path d="M121.05,329.04v14.08c0,5.33,2.36,7.58,5.54,7.58,3.53,0,5.79-2.33,5.79-7.58v-14.08h3.1v13.86c0,7.3-3.85,10.3-9,10.3-4.87,0-8.54-2.79-8.54-10.16v-14h3.1Z" style="fill:#1d1d1b;"/><path d="M140.81,329.04h3.07v21.2h10.16v2.58h-13.23v-23.78Z" style="fill:#1d1d1b;"/><path d="M177.78,340.68c0,8.18-4.97,12.52-11.04,12.52s-10.69-4.87-10.69-12.06c0-7.55,4.69-12.49,11.04-12.49s10.69,4.97,10.69,12.03ZM159.33,341.07c0,5.08,2.75,9.63,7.58,9.63s7.62-4.48,7.62-9.88c0-4.73-2.47-9.67-7.58-9.67s-7.62,4.69-7.62,9.91Z" style="fill:#1d1d1b;"/><path d="M184.84,329.04v14.08c0,5.33,2.36,7.58,5.54,7.58,3.53,0,5.79-2.33,5.79-7.58v-14.08h3.1v13.86c0,7.3-3.85,10.3-9,10.3-4.87,0-8.54-2.79-8.54-10.16v-14h3.1Z" style="fill:#1d1d1b;"/><path d="M204.17,349.07c1.38.85,3.39,1.55,5.5,1.55,3.14,0,4.97-1.66,4.97-4.06,0-2.22-1.27-3.49-4.48-4.73-3.88-1.38-6.28-3.39-6.28-6.74,0-3.7,3.07-6.46,7.69-6.46,2.43,0,4.2.56,5.26,1.16l-.85,2.5c-.78-.42-2.36-1.13-4.52-1.13-3.25,0-4.48,1.94-4.48,3.56,0,2.22,1.45,3.32,4.73,4.59,4.02,1.55,6.07,3.49,6.07,6.99,0,3.67-2.72,6.84-8.33,6.84-2.29,0-4.8-.67-6.07-1.52l.78-2.58Z" style="fill:#1d1d1b;"/><path d="M234.29,341.66h-9.24v8.57h10.3v2.58h-13.37v-23.78h12.84v2.58h-9.77v7.51h9.24v2.54Z" style="fill:#1d1d1b;"/><path d="M246.82,329.04h12.81v2.58h-9.74v7.9h9v2.54h-9v10.76h-3.07v-23.78Z" style="fill:#1d1d1b;"/><path d="M264,329.04h3.07v21.2h10.16v2.58h-13.23v-23.78Z" style="fill:#1d1d1b;"/><path d="M284.49,345.33l-2.47,7.48h-3.17l8.08-23.78h3.7l8.11,23.78h-3.28l-2.54-7.48h-8.43ZM292.29,342.94l-2.33-6.84c-.53-1.55-.88-2.96-1.24-4.34h-.07c-.35,1.41-.74,2.86-1.2,4.3l-2.33,6.88h7.16Z" style="fill:#1d1d1b;"/><path d="M320.34,351.75c-1.38.49-4.09,1.31-7.3,1.31-3.6,0-6.56-.92-8.89-3.14-2.05-1.98-3.32-5.15-3.32-8.86.04-7.09,4.9-12.28,12.88-12.28,2.75,0,4.9.6,5.93,1.09l-.74,2.5c-1.27-.56-2.86-1.02-5.26-1.02-5.79,0-9.56,3.6-9.56,9.56s3.63,9.6,9.17,9.6c2.01,0,3.39-.28,4.09-.63v-7.09h-4.83v-2.47h7.83v11.43Z" style="fill:#1d1d1b;"/><path d="M332.51,329.04h12.81v2.58h-9.74v7.9h9v2.54h-9v10.76h-3.07v-23.78Z" style="fill:#1d1d1b;"/><path d="M370.01,340.68c0,8.18-4.97,12.52-11.04,12.52s-10.69-4.87-10.69-12.06c0-7.55,4.69-12.49,11.04-12.49s10.69,4.97,10.69,12.03ZM351.56,341.07c0,5.08,2.75,9.63,7.58,9.63s7.62-4.48,7.62-9.88c0-4.73-2.47-9.67-7.58-9.67s-7.62,4.69-7.62,9.91Z" style="fill:#1d1d1b;"/><path d="M394.31,340.68c0,8.18-4.97,12.52-11.04,12.52s-10.69-4.87-10.69-12.06c0-7.55,4.69-12.49,11.04-12.49s10.69,4.97,10.69,12.03ZM375.86,341.07c0,5.08,2.75,9.63,7.58,9.63s7.62-4.48,7.62-9.88c0-4.73-2.47-9.67-7.58-9.67s-7.62,4.69-7.62,9.91Z" style="fill:#1d1d1b;"/><path d="M402.82,331.65h-7.23v-2.61h17.6v2.61h-7.27v21.17h-3.11v-21.17Z" style="fill:#1d1d1b;"/><path d="M415.83,329.35c1.34-.28,3.46-.49,5.61-.49,3.07,0,5.04.53,6.53,1.73,1.23.92,1.97,2.33,1.97,4.2,0,2.29-1.52,4.3-4.02,5.22v.07c2.26.56,4.9,2.43,4.9,5.96,0,2.05-.81,3.6-2.01,4.76-1.66,1.52-4.34,2.22-8.22,2.22-2.12,0-3.74-.14-4.76-.28v-23.39ZM418.9,339.09h2.79c3.25,0,5.15-1.69,5.15-3.99,0-2.79-2.12-3.88-5.22-3.88-1.41,0-2.22.11-2.72.21v7.66ZM418.9,350.49c.6.11,1.48.14,2.58.14,3.18,0,6.1-1.16,6.1-4.62,0-3.25-2.79-4.59-6.14-4.59h-2.54v9.07Z" style="fill:#1d1d1b;"/><path d="M438.8,345.33l-2.47,7.48h-3.17l8.08-23.78h3.7l8.11,23.78h-3.28l-2.54-7.48h-8.43ZM446.6,342.94l-2.33-6.84c-.53-1.55-.88-2.96-1.23-4.34h-.07c-.35,1.41-.74,2.86-1.2,4.3l-2.33,6.88h7.16Z" style="fill:#1d1d1b;"/><path d="M456.54,329.04h3.07v21.2h10.16v2.58h-13.23v-23.78Z" style="fill:#1d1d1b;"/><path d="M473.19,329.04h3.07v21.2h10.16v2.58h-13.23v-23.78Z" style="fill:#1d1d1b;"/><g id="c"><g style="clip-path:url(#d);"><g style="clip-path:url(#e);"><path d="M365.07,54.49l-4.83,14.89c-11.18-3.76-22.83-6.12-34.65-6.73-5.51-.3-8.17,0-13.38,1.69-7.11,2.31-14.3,5.6-20.74,9.38-.2-.06-.08-.42-.05-.59.34-1.91,1.22-3.89,1.77-5.76,1.3-4.46,2.62-8.94,3.81-13.43l-.68-3,.12-.17c3.86-1.58,7.68-3.28,11.58-4.77,3.05-1.17,7.08-3.03,10.3-2.96,4.9.12,10.71,1.46,15.03,2.2l4.48.97c7.87,1.7,15.72,4.17,23.22,6.91q1.32.47,3.99,1.37" style="fill:#edaa1d;"/><path d="M342.94,19.36l-2.28,22.96-19.79-3.54q-2.77-.24-4.61.06c-6.15,1-14.21,5.49-20.16,7.56l-.73.09c-.67-3.51-1.38-7.01-2.09-10.52-.67-3.3-1.33-6.6-1.94-9.9v-.05c-.37-1.49-.42-3.04-.14-4.54l1.45-7.84-4.9,9.16c-.76,2.23-.33,3.69.05,5.95,1.39,8.29,3.67,16.6,5.05,24.91-.13.44-.26.87-.39,1.31-.71,2.37-1.49,4.77-2.26,7.17-.02.07-.04.13-.06.19-.18.58-.35,1.15-.52,1.73-.41,1.38-.92,2.96-1.39,4.53,0,.01-.01.03-.01.05-.43,1.49-.83,2.98-1.18,4.46-.24,1.24-.18,2.15.03,3.39,1.62,9.88,5.03,19.97,7.05,29.81-2.15,9.53-4.82,18.95-6.68,28.55-.81,4.17-2.23,10.89-1.46,14.97.22,1.16,1.89,2.8,2.78,3.58,1.21,1.07,2.61,1.94,3.9,2.91.51.4,1.46,1,1.24.13l-3.33-6.65c6.46,3.89,12.2,9.04,19.21,12.01.81.34,1.8.88,2.66.79-1.7-1.33-3.39-2.66-5.08-4.01-.17-.13-.34-.27-.51-.41-1.68-1.33-3.36-2.68-5.02-4.03-.09-.08-.19-.15-.28-.23-.37-.3-.75-.61-1.12-.91-.83-.68-1.67-1.36-2.49-2.05-.22-.18-.44-.36-.66-.55-.64-.52-1.27-1.05-1.91-1.58-.63-.52-1.25-1.04-1.87-1.57-.89-.75-1.78-1.5-2.66-2.26-.29-.27-.4-.93-.4-1.75,0-2.49.98-6.56.98-6.56.13-.57-.02-.58.42-.5,2.82,2.85,5.56,5.85,8.4,8.73.28.29.57.58.86.87,3.26,3.24,6.68,6.29,10.47,8.83.03.02.06.04.09.06,2.3,1.5,4.71,2.77,7.35,3.92l-4.28,16.44c-4.82-2.99-9.63-6.05-14.55-8.92-.09-.06-.18-.11-.27-.16-6.53-3.75-13.25-7.14-20.3-9.73-3.35-1.17-6.76-2.09-10.17-3.06-.12-.36-.2-.73-.2-1.11-.2-7.93-.1-15.83.74-23.72-.25-.25-.5-.49-.76-.73-.01-.01-.03-.03-.04-.04-.21-.2-.42-.39-.63-.58-.04-.04-.08-.07-.12-.11-.13-.11-.26-.23-.39-.34-.01-.01-.03-.03-.04-.04-1.46-1.27-3.06-2.47-4.74-3.53-.09-.06-.19-.11-.29-.17-1.18-.7-2.94-1.63-4.64-2.33-.04-.02-.09-.04-.13-.05-1.01-.39-2.05-.7-3.08-.92-.62-.09-1.39-.22-2,0,.66.66,1.35,1.3,2.05,1.91,0,0,.02.02.03.03,1.83,1.56,3.72,3.04,5.62,4.52.1.08.2.15.29.23,1.25.96,2.5,1.93,3.72,2.93l.27.46-2.78,13.02-3.58,5.68-9.79-1.19s2.05-15.2,1.8-15.24c-.37-.07-4.72,14.88-4.72,14.88l-7.6-1.3,1.38-13.19c.25-1.44,1.3-2.91,1.55-4.36,0-.02,0-.03,0-.05.2-1.2.32-2.4.3-3.62l-10.18,8.24c-2.57,1.8-5.19,3.52-7.88,5.14-2.16-1.32-4.16-2.9-6.26-4.3-2.16-1.44-4.46-2.69-6.53-4.27,2.04-1.3,4.19-2.4,6.15-3.83,5.7-4.15,9.99-9.93,13.08-16.23l-9.22,8.34c-1.61,1.23-3.14,2.58-4.88,3.61-3.61-2.57-7.2-5.22-10.78-7.86l-7.23-5.29c-.22-.16-1.9-1.29-1.65-1.52,1.13-.18,2.38-.34,3.49-.59.37-.08.74-.17,1.1-.27.08-.02.15-.04.22-.06.18-.05.36-.1.54-.15,2.76-.81,5.33-1.96,7.85-3.33.2-.11.4-.22.6-.33,1.9-1.08,3.79-2.28,5.79-3.55,5.66-3.59,8.98-5.73,15.03-10.98.61-.53,1.14-.98,1.6-1.64,3.79,2.37,3.14,2,3.79,2.37,2.76,1.59,5.93,2.75,9.12,3.04.17.02.57.16.41-.23l-3.08-3c-3.08-2.7-6.66-5.33-9.98-7.81-.43-.32,0,0-2.87-2.05,1.9-2.47,3.5-5.27,4.82-8.08,5.47-11.67,9.5-24.28,15.15-35.86.11-.23.22-.45.34-.67.01-.03.03-.06.05-.09.08-.16.17-.31.25-.47,2.52-4.61,5.91-7.8,9.99-10.57.02-.02.04-.03.07-.05,6.21-4.43,13.96-7.85,21.6-10.67,0,0,0,0,0,0,6.36-2.4,12.87-4.43,19.31-6.47,2.08,2.23,4.54,4.41,7.15,6.4,2.61,1.99,5.37,3.8,8.06,5.26,3.18,1.73,4.51,1.83,8.2,1.6,3.6-.22,7.57-1.44,10.81-2.99.61-.29,0,0,2.41-1.19l4.28,4.56c.27.28.46.61.59.98" style="fill:#a91c1b;"/><path d="M281.32,149.94c-.81-1.21-.42-3.69-.28-5.16,1.09-11.87,4.11-23.43,6.31-35.08.6-3.19,1.02-4.98.35-8.25-1.9-9.35-4.71-18.61-6.49-28,.45-6.33,2.89-12.54,3.95-18.75.99-5.74-.27-13.13-.68-19.01-.17-2.38-.24-4.79-.37-7.17-.32.05-.31.37-.41.59-4.81,10.03-6.61,23.03-9.76,33.8-.4,1.36-2.16,5.36-2.14,6.37,0,.54.61,2.65.79,3.36,2.22,8.84,5.77,17.48,7.48,26.46,1.52,7.96.45,15.24-.7,23.16-1.16,7.95-2.77,15.84-4.33,23.71-.5.61-.34-1.54-.36-1.72-.34-3.57-.91-7.14-1.27-10.71-.97-9.73-1.32-20-3.5-29.53-.14-.63-1.18-4.47-1.4-4.68-.25-.23-.31.04-.4.23-.23.49-.21,1.13-.38,1.62-1.85,5.45-5.84,10.77-9.65,15.03-.97,1.08,0,0-3,3.27.87.11,1.96.46,3.08.92.05.02.09.03.13.05,1.71.7,3.47,1.63,4.64,2.33.09.06.19.11.29.17,1.69,1.03,3.26,2.23,4.74,3.53.01.01.03.03.04.04.13.1.26.22.39.34.04.04.08.07.12.11.21.19.42.38.63.58.01,0,.03.03.04.04.26.24.51.49.76.73-.86,8.06-.95,16.11-.73,24.21,0,.05.01.11.03.16l.16.46c3.41.97,6.83,1.9,10.17,3.06.27.09.55.19.82.29,6.83,2.47,13.24,5.8,19.48,9.44.09.05.18.1.27.16,4.91,2.87,9.72,5.94,14.55,8.92l4.28-16.44c-2.64-1.15-5.04-2.43-7.35-3.92-.03-.02-.06-.04-.09-.06-1.4-.91-2.76-1.91-4.11-3.01-2.22-1.81-4.32-3.78-6.36-5.82-.29-.29-.58-.58-.86-.87-2.83-2.88-5.57-5.88-8.4-8.73-.44-.08-.96-2.12-1.01-1.86-.46,2.55-1.66,4.28-2.16,6.83l-.09,3.8c.88.76,4.02,1.56,4.91,2.31.62.53,1.24,1.05,1.87,1.57.64.53,1.27,1.06,1.91,1.58.22.19.44.37.66.55.83.69,1.66,1.37,2.49,2.05.37.3.74.61,1.12.91.09.08.19.15.28.23,1.66,1.35,3.34,2.7,5.02,4.03.17.14.34.27.51.41,2,1.59,4,3.16,6.01,4.74,0,0,0,0,0,0l-3.59-1.52c-7.01-2.97-12.75-8.12-19.21-12.01l3.33,6.65c.23.87-1.28.23-1.28.23l-11.29-6.72Z" style="fill:#851914;"/><path d="M349.07,105.28c-.85.24-2.31,1.05-3.16,1.03-1.06-.03-3.48-.89-4.77-1.13-2.24-.41-4.5-.64-6.76-.87-1.38.72-1.27,3.93-.09,4.63.97.58,4.28-.49,5.55-.37-.46,1.98-.42,4.05-.37,6.09.02.79.4,1.37.09,2.26-.02.06-.52.72-.57.74-.7.19-2.5-.07-3.41,0-2.88.22-5.72,1.1-8.63,1.17-.79.2-4.37,3.04-4.53,3.81-.06.26,0,.32.26.26.6-.21,1.21-.39,1.82-.54,0,0,0,0,0,0,.37-.11.75-.22,1.15-.29.95-.18,1.91-.31,2.86-.4.16-.02.31-.03.47-.05.06,0,.12,0,.19-.02,1.87-.15,3.75-.16,5.63-.08.07,0,.14,0,.21,0,.55.02,1.09.05,1.64.09.21.02.42.03.63.05.44,1.22,1.31,2.41.77,3.75-.05.13-.09.7-1.11,1.21-1.75.88-7.81.82-7.81.82.54.74,1.3,1.33,2.01,1.89.76.59,3.32,2.07,3.7,2.65.35.55,1.44,5.57,1.53,6.46.08.73.13,1.62-.26,2.24-.94,1.5-3.6,3.2-4.71,4.75l-.28.09c-2.21-.65-4.38-1.36-6.52-2.2-.42-.16-.84-.33-1.26-.49-.03-.01-.06-.03-.09-.04-4.19-1.6-8.34-3.38-12.46-5.2-.12-.05-.25-.1-.37-.16-3.46-1.5-6.9-3.02-10.27-4.51-.89-.39-5.52-2.29-5.87-2.66-.32-.34,0-1.08.09-1.55,1.35-7.03,3.61-14.12,5.08-21.14-2.09-9.61-4.27-19.21-5.87-28.92,6.31-3.73,12.95-6.99,19.76-9.74,5.81-2.35,8.35-2.36,14.6-1.73,5.26.54,10.46,1.72,15.67,2.57.42,1.85.87,3.84,1.09,5.71.1.83.33,2.09.2,2.87-.27,1.58-3.3,3.88-3.06,5.8,1.73,5.66,4.05,11.13,5.98,16.71.22.64,1.46,4.08,1.25,4.43" style="fill:#f8f8f8;"/><path d="M340.38,78.26c-1.09,2.28-2.9,4.68-5.27,5.71-.74.32-3.17.87-3.55,1.17-.24.19-.94,2.03-1.27,2.54-1.72,2.65-4.59,2.62-7.42,3.1l2.16-2.56c.22-.39.67-.98.39-1.44-2.65-1.34-5.74-2.35-8.27-3.9-.13-.08-.84-.49-.72-.64l9.62-2.63c-.02-.46-4.96-2.51-5.73-2.62-2.73-.36-6.03.21-8.79.26,2.85-1.82,7.28-4.91,10.81-4.64,3.95.3,9.93,4.64,13.92,5.87,1.6.49,2.57.2,4.13-.23"/><path d="M370.86,51.72l-.39-.13c-8.29-3.12-16.73-5.84-25.26-8.23.28-5.41,1.11-10.82,1.61-16.22.3-3.26,0,0,.86-9.78l-9.67-9.91c-3.47,3.21-7.83,5.25-12.55,5.78-1.15.13-3.64.4-4.66.16C314.37,10.02,308.36,5.13,303.17,0c-6.96,2.03-14.22,4.09-21.31,6.56-7.09,2.47-14.01,5.36-20.3,9.03-8.41,4.92-12.89,9.28-17.1,18.11-5.24,11.02-9.18,22.68-14.39,33.71-1.94,4.1-4.04,8.18-7.23,11.46l5.08,3.63c-5.09,4.64-10.88,8.49-16.71,12.14-2.45,1.54-6.47,4.34-8.99,5.35-2.07.83-5.55,1.34-7.84,1.78-2.71.52-5.45,1-8.2,1.33l-.76.13,25.25,19.74-9.69,5.16c3.8,2.17,7.58,4.69,11.34,7.25,3.76,2.56,7.48,5.18,11.17,7.55,3.89-2,3.06-1.56,3.89-2,2.35-1.24,4.61-2.73,6.89-4.09l-1.64,12.62,28.31,4.24,2.92-4.34.37,7.62c20.04,3.9,36.75,15.54,53.9,25.78,1.96-9.3,3.86-18.76,8.15-27.3-2.13-1.11-4.24-2.24-6.25-3.55l-4.26-3.27,2.99-2.12c2.87.88,5.68,2.01,8.59,2.79,1.38.37,4.04,1.22,5.36.92.68-.16.79-.73,1.21-1.15,1.76-1.74,3.84-3.61,5.45-5.44.76-.86,1.98-2.04,1.79-3.24l-1.93-9.81c1.56-1.53,3.58-4.04,3.38-6.35-.07-.82-.72-2.33-.69-2.93.03-.58,1.93-2.45,2.12-3.3.24-1.06-.21-6.7.04-6.95,3.14.26,9.61-1.76,9.81-5.54.06-1.08-1.55-5.21-2-6.53-1.68-4.95-3.62-9.82-5.41-14.73.82-1.61,2.7-3.45,3-5.27.41-2.42-.65-5.39-.68-7.85l14.7,3.99,7.35-23.43ZM318.99,158.57l-4.28,16.44c-4.82-2.99-9.63-6.05-14.55-8.92-.09-.06-.18-.11-.27-.16-6.53-3.75-13.25-7.14-20.3-9.73-3.35-1.17-6.76-2.09-10.17-3.06-.12-.36-.2-.73-.2-1.11-.2-7.93-.1-15.83.74-23.72-.25-.25-.5-.49-.76-.73-.01-.01-.03-.03-.04-.04-.21-.2-.42-.39-.63-.58-.04-.04-.08-.07-.12-.11-.13-.11-.26-.23-.39-.34-.01-.01-.03-.03-.04-.04-1.46-1.27-3.06-2.47-4.74-3.53-.09-.06-.19-.11-.29-.17-1.18-.7-2.94-1.63-4.64-2.33-.04-.02-.09-.04-.13-.05-1.01-.39-2.05-.7-3.08-.92-.62-.09-1.39-.22-2,0,.4.4.8.79,1.21,1.16.27.26.55.5.83.75,0,0,.02.02.03.03,1.83,1.56,3.72,3.04,5.62,4.52.1.08.2.15.29.23,1.25.96,2.5,1.93,3.72,2.93l.27.46-2.78,13.02-3.58,5.68-9.79-1.19s2.05-15.2,1.8-15.24c-.37-.07-4.72,14.88-4.72,14.88l-7.6-1.3,1.06-10.14.32-3.05c.25-1.44,1.3-2.91,1.55-4.36,0-.02,0-.03,0-.05.2-1.2.32-2.4.3-3.62l-10.18,8.24c-2.57,1.8-5.19,3.52-7.88,5.14-2.16-1.32-4.16-2.9-6.26-4.3-2.16-1.44-4.46-2.69-6.53-4.27,2.04-1.3,4.19-2.4,6.15-3.83,5.7-4.15,9.99-9.93,13.08-16.23l-9.22,8.34c-1.61,1.23-3.14,2.58-4.88,3.61-3.61-2.57-7.2-5.22-10.78-7.86l-7.23-5.29c-.22-.16-1.9-1.29-1.65-1.52,1.13-.18,2.38-.34,3.49-.59.37-.08.74-.17,1.1-.27.08-.02.15-.04.22-.06.18-.05.36-.1.54-.15,2.76-.81,5.33-1.96,7.85-3.33.2-.11.4-.22.6-.33,1.9-1.08,3.79-2.28,5.79-3.55,5.66-3.59,8.98-5.73,15.03-10.98.61-.53,1.14-.98,1.6-1.64,3.79,2.37,3.14,2,3.79,2.37,2.76,1.59,5.93,2.75,9.12,3.04.17.02.57.16.41-.23l-3.08-3c-3.08-2.7-6.66-5.33-9.98-7.81-.43-.32,0,0-2.87-2.05,1.9-2.47,3.5-5.27,4.82-8.08,5.47-11.67,9.5-24.28,15.15-35.86.11-.23.22-.45.34-.67.01-.03.03-.06.05-.09.08-.16.17-.31.25-.47,2.52-4.61,5.91-7.8,9.99-10.57.02-.02.04-.03.07-.05,6.21-4.43,13.96-7.85,21.6-10.67,0,0,0,0,0,0,6.36-2.4,12.87-4.43,19.31-6.47,2.08,2.23,4.54,4.41,7.15,6.4,2.61,1.99,5.37,3.8,8.06,5.26,3.18,1.73,4.51,1.83,8.2,1.6,3.6-.22,7.57-1.44,10.81-2.99.61-.29,0,0,2.41-1.19l4.28,4.56c.27.28.46.61.59.98l-2.28,22.96-19.79-3.54c-.37-.03-.68-.06-.96-.08-1.84-.15-2.05-.12-3.65.14-6.15,1-14.21,5.49-20.16,7.56l-.73.09c-.67-3.51-1.38-7.01-2.09-10.52-.57-2.81-1.14-5.62-1.67-8.43-.09-.49-.18-.98-.27-1.47v-.05c-.37-1.49-.42-3.04-.14-4.54l1.45-7.84-4.9,9.16c-.76,2.23-.33,3.69.05,5.95,1.39,8.29,3.67,16.6,5.05,24.91-.13.44-.26.87-.39,1.31-.71,2.37-1.49,4.77-2.26,7.17-.02.07-.04.13-.06.19-.18.58-.35,1.15-.52,1.73-.41,1.38-.92,2.96-1.39,4.53,0,.01-.01.03-.01.05-.43,1.49-.83,2.98-1.18,4.46-.24,1.24-.18,2.15.03,3.39,1.62,9.88,5.03,19.97,7.05,29.81-2.15,9.53-4.82,18.95-6.68,28.55-.81,4.17-2.23,10.89-1.46,14.97.22,1.16,1.89,2.8,2.78,3.58,1.21,1.07,2.61,1.94,3.9,2.91.51.4,1.46,1,1.24.13l-3.33-6.65c6.46,3.89,12.2,9.04,19.21,12.01.81.34,1.8.88,2.66.79-1.7-1.33-3.39-2.66-5.08-4.01-.17-.13-.34-.27-.51-.41-1.68-1.33-3.36-2.68-5.02-4.03-.09-.08-.19-.15-.28-.23-.37-.3-.75-.61-1.12-.91-.83-.68-1.67-1.36-2.49-2.05-.22-.18-.44-.36-.66-.55-.64-.52-1.27-1.05-1.91-1.58-.63-.52-1.25-1.04-1.87-1.57-.89-.75-1.78-1.5-2.66-2.26-.29-.27-.4-.93-.4-1.75,0-2.49.98-6.56.98-6.56.13-.57-.02-.58.42-.5,2.82,2.85,5.56,5.85,8.4,8.73.28.29.57.58.86.87,3.26,3.24,6.68,6.29,10.47,8.83.03.02.06.04.09.06,2.3,1.5,4.71,2.77,7.35,3.92M347.83,100.86c.22.64,1.46,4.08,1.25,4.43-.85.24-2.31,1.05-3.16,1.03-1.06-.03-3.48-.89-4.77-1.13-2.24-.41-4.5-.64-6.76-.87-1.38.72-1.27,3.93-.09,4.63.97.58,4.28-.49,5.55-.37-.46,1.98-.42,4.05-.37,6.09.02.79.4,1.37.09,2.26-.02.06-.52.72-.57.74-.7.19-2.5-.07-3.41,0-2.88.22-5.72,1.1-8.63,1.17-.79.2-4.37,3.04-4.53,3.81-.06.26,0,.32.26.26.6-.21,1.21-.39,1.82-.54,0,0,0,0,0,0,.37-.11.75-.22,1.15-.29.95-.18,1.91-.31,2.86-.4.16-.02.31-.03.47-.05.06,0,.12,0,.19-.02,1.87-.15,3.75-.16,5.63-.08.07,0,.14,0,.21,0,.55.02,1.09.05,1.64.09.21.02.42.03.63.05.44,1.22,1.31,2.41.77,3.75-.05.13-.09.7-1.11,1.21-1.75.88-7.81.82-7.81.82.54.74,1.3,1.33,2.01,1.89.76.59,3.32,2.07,3.7,2.65.35.55,1.44,5.57,1.53,6.46.08.73.13,1.62-.26,2.24-.94,1.5-3.6,3.2-4.71,4.75l-.28.09c-2.21-.65-4.38-1.36-6.52-2.2-.42-.16-.84-.33-1.26-.49-.03-.01-.06-.03-.09-.04-4.19-1.6-8.34-3.38-12.46-5.2-.12-.05-.25-.1-.37-.16-3.46-1.5-6.9-3.02-10.27-4.51-.89-.39-5.52-2.29-5.87-2.66-.32-.34,0-1.08.09-1.55,1.35-7.03,3.61-14.12,5.08-21.14-2.09-9.61-4.27-19.21-5.87-28.92,6.31-3.73,12.95-6.99,19.76-9.74,5.81-2.35,8.35-2.36,14.6-1.73,5.26.54,10.46,1.72,15.67,2.57.42,1.85.87,3.84,1.09,5.71.1.83.33,2.09.2,2.87-.27,1.58-3.3,3.88-3.06,5.8,1.73,5.66,4.05,11.13,5.98,16.71M325.59,62.66c-5.51-.3-8.17,0-13.38,1.69-7.11,2.31-14.3,5.6-20.74,9.38-.2-.06-.08-.42-.05-.59.34-1.91,1.22-3.89,1.77-5.76,1.3-4.46,2.62-8.94,3.81-13.43l-.68-3,.12-.17c3.86-1.58,7.68-3.28,11.58-4.77,3.05-1.17,7.08-3.03,10.3-2.96,4.9.12,10.71,1.46,15.03,2.2l4.48.97c7.87,1.7,15.72,4.17,23.22,6.91q1.32.47,3.99,1.36l-4.83,14.89c-11.18-3.76-22.83-6.12-34.65-6.73"/><path d="M265.06,129.54l-2.78,13.02-3.58,5.68-9.79-1.19s2.05-15.2,1.8-15.24c-.37-.07-4.72,14.88-4.72,14.88l-7.6-1.3,1.06-10.14,14.83-14.63c.27.26.55.5.83.75,0,0,.02.02.03.03,1.83,1.56,3.72,3.04,5.62,4.52.1.08.2.15.29.23,1.25.96,2.5,1.93,3.72,2.93l.27.46Z" style="fill:#851914;"/><path d="M319.91,38.7c-1.84-.15-2.05-.12-3.65.14-6.15,1-14.21,5.49-20.16,7.56l-.73.09c-.67-3.51-1.38-7.01-2.09-10.52-.57-2.81-1.14-5.62-1.67-8.43,2.62-.52,5.7-.73,8.28-.53,3.42.26,9.06,4.14,12.06,6.1,2.71,1.77,5.3,3.73,7.96,5.59" style="fill:#851914;"/><path d="M252.17,51.58c-.27,2-.41,4.06-.77,6.04-1.8,9.89-5.15,19.61-8.25,29.14-.09.28-.04.65-.42.76-3.08-2.7-6.66-5.33-9.98-7.81l2.64-2.35c5.5-5.6,9.93-12.13,13.61-19.05l3.17-6.72Z" style="fill:#851914;"/><path d="M258.86,93.39c-4.04,9.06-13.79,17.47-21.21,23.99-3.54,3.11-7.37,6.33-11.09,9.24-2.99,2.33-6.1,4.53-9.24,6.64-2.16-1.44-4.46-2.69-6.53-4.27,2.04-1.3,4.19-2.4,6.15-3.83,5.7-4.15,9.99-9.93,13.08-16.23l-9.22,8.34c-1.61,1.23-3.14,2.58-4.88,3.61-3.61-2.57-7.2-5.22-10.78-7.86-.17-.13-.27-.39-.35-.46,6.83-1,13.12-3.91,19.21-7.01,13.47-6.83,26.51-14.65,34.58-27.85l2.64-5.07c.93,7.09.55,14.18-2.38,20.76" style="fill:#851914;"/></g></g></g></g></svg>